{"title":"Raanjhanaa 2013 Hindi Movies HDScam New Source Best Quality ~ â˜»r","uid":8604579,"size":734387251,"categoryP":"video","categoryS":"movies","magnet":"?xt=urn:btih:90a77a3e4a6c7f54ac7a4e7159cf5d731fcab806&amp;dn=Raanjhanaa+2013+Hindi+Movies+HDScam+New+Source+Best+Quality+%7E+%E2%98%BBr&amp;tr=udp%3A%2F%2Ftracker.openbittorrent.com%3A80&amp;tr=udp%3A%2F%2Fopen.demonii.com%3A1337&amp;tr=udp%3A%2F%2Ftracker.coppersurfer.tk%3A6969&amp;tr=udp%3A%2F%2Fexodus.desync.com%3A6969","seeders":2,"leechers":0,"uploader":"basicssom","files":20,"time":1371979581,"description":"Raanjhanaa 2013 Hindi Movies HDScam New Source Best Quality ~ â˜»rDXâ˜»\n\nScreen Shots :\n &lt;a href=&quot;\nhttp://myimghosting.serveftp.com/13/Raanjhanaa.html&quot; rel=&quot;nofollow&quot; target=&quot;_NEW&quot;&gt;\nhttp://myimghosting.serveftp.com/13/Raanjhanaa.html&lt;/a&gt;\n &lt;a href=&quot;\nhttp://myimghost.cwahi.net/Raanjhanaa.html&quot; rel=&quot;nofollow&quot; target=&quot;_NEW&quot;&gt;\nhttp://myimghost.cwahi.net/Raanjhanaa.html&lt;/a&gt;\n &lt;a href=&quot;\nhttp://users2.jabry.com/myimghost/Raanjhanaa/Raanjhanaa.jpg&quot; rel=&quot;nofollow&quot; target=&quot;_NEW&quot;&gt;\nhttp://users2.jabry.com/myimghost/Raanjhanaa/Raanjhanaa.jpg&lt;/a&gt;\n\nFormat                                   : MPEG-4\nFormat profile                           : Base Media\nCodec ID                                 : isom\nFile size                                : 700 MiB\nDuration                                 : 2h 3mn\nOverall bit rate mode                    : Variable\nOverall bit rate                         : 795 Kbps\nEncoded date                             : UTC 2013-06-22 08:58:02\nTagged date                              : UTC 2013-06-22 08:58:02\n\nVideo\nID                                       : 1\nFormat                                   : AVC\nFormat/Info                              : Advanced Video Codec\nFormat profile                           : High@L2.1\nFormat settings, CABAC                   : Yes\nFormat settings, ReFrames                : 4 frames\nCodec ID                                 : avc1\nCodec ID/Info                            : Advanced Video Coding\nDuration                                 : 2h 3mn\nBit rate                                 : 728 Kbps\nMaximum bit rate                         : 1 696 Kbps\nWidth                                    : 688 pixels\nHeight                                   : 288 pixels\nDisplay aspect ratio                     : 2.40:1\nFrame rate mode                          : Constant\nFrame rate                               : 25.000 fps\nColor space                              : YUV\nChroma subsampling                       : 4:2:0\nBit depth                                : 8 bits\nScan type                                : Progressive\nBits/(Pixel*Frame)                       : 0.147\nStream size                              : 641 MiB (92%)\nTitle                                    : 264#trackID=1:fps=25@GPAC0.5.1-DEV-rev4283\nWriting library                          : x264 core 133 r2334 a3ac64b\nEncoding settings                        : cabac=1 / ref=1 / deblock=1:-2:-1 / \n\nanalyse=0x3:0x113 / me=hex / subme=4 / psy=1 / psy_rd=1.00:0.00 / mixed_ref=0 / me_range=8 / \n\nchroma_me=1 / trellis=0 / 8x8dct=1 / cqm=0 / deadzone=21,11 / fast_pskip=1 / \n\nchroma_qp_offset=0 / threads=3 / lookahead_threads=1 / sliced_threads=0 / nr=0 / decimate=1 \n\n/ interlaced=0 / bluray_compat=0 / constrained_intra=0 / bframes=16 / b_pyramid=2 / \n\nb_adapt=1 / b_bias=0 / direct=3 / weightb=1 / open_gop=0 / weightp=2 / keyint=250 / \n\nkeyint_min=25 / scenecut=40 / intra_refresh=0 / rc=2pass / mbtree=0 / bitrate=728 / \n\nratetol=1.0 / qcomp=0.60 / qpmin=10 / qpmax=51 / qpstep=4 / cplxblur=20.0 / qblur=0.5 / \n\nip_ratio=1.40 / pb_ratio=1.30 / aq=2:1.00\nEncoded date                             : UTC 2013-06-22 08:58:02\nTagged date                              : UTC 2013-06-22 09:00:02\n\nAudio\nID                                       : 2\nFormat                                   : AAC\nFormat/Info                              : Advanced Audio Codec\nFormat profile                           : HE-AAC / LC\nCodec ID                                 : 40\nDuration                                 : 2h 3mn\nBit rate mode                            : Variable\nBit rate                                 : 64.0 Kbps\nMaximum bit rate                         : 74.2 Kbps\nChannel(s)                               : 2 channels\nChannel positions                        : Front: L R\nSampling rate                            : 48.0 KHz / 24.0 KHz\nCompression mode                         : Lossy\nStream size                              : 56.4 MiB (8%)\nEncoded date                             : UTC 2013-06-22 06:35:10\nTagged date                              : UTC 2013-06-22 09:00:02","torrent":{"xt":"urn:btih:90a77a3e4a6c7f54ac7a4e7159cf5d731fcab806","amp;dn":"Raanjhanaa+2013+Hindi+Movies+HDScam+New+Source+Best+Quality+%7E+%E2%98%BBr","amp;tr":["udp%3A%2F%2Ftracker.openbittorrent.com%3A80","udp%3A%2F%2Fopen.demonii.com%3A1337","udp%3A%2F%2Ftracker.coppersurfer.tk%3A6969","udp%3A%2F%2Fexodus.desync.com%3A6969"],"infoHash":"90a77a3e4a6c7f54ac7a4e7159cf5d731fcab806","infoHashBuffer":{"type":"Buffer","data":[144,167,122,62,74,108,127,84,172,122,78,113,89,207,93,115,31,202,184,6]},"announce":[],"urlList":[]}}